<?xml version="1.0" encoding="utf-8"?>
<!-- Generator: Adobe Illustrator 27.9.0, SVG Export Plug-In . SVG Version: 6.00 Build 0)  -->
<svg version="1.1" id="Layer_1" xmlns="http://www.w3.org/2000/svg" xmlns:xlink="http://www.w3.org/1999/xlink" x="0px" y="0px"
	 viewBox="0 0 500 500" style="enable-background:new 0 0 500 500;" xml:space="preserve">
<g>
	<path d="M25.6,327c-10.2-1.8-15.4-7.4-15.7-18.1c-1-35.6,5.5-69.2,25-99.6c5.8-9.1,12.1-18.2,16.4-28
		c11.3-25.5,32.2-34.5,57.9-34.7c56.6-0.4,113.1-0.2,169.7,0.1c11.5,0.1,21.6,4.1,30.4,12.3c19.8,18.5,40.4,36.2,60.1,54.8
		c8.2,7.7,16.9,11.2,28,11.2c11.6,0.1,23.2,1.1,34.7,2.6c37.5,4.8,59.8,30.5,59.8,68.4c0,0.4,0,0.8,0,1.2c0,27.7-6.1,33-34,29.5
		c0.6-33.5-18.6-57.6-47.3-59.4c-33.8-2.1-52.3,17-57.2,59.7c-73.8,0-147.7,0-222.7,0c0.4-19.1-3.7-37.6-20.6-48.4
		c-9.8-6.3-22.7-10.6-34.3-10.8C46.8,267.2,31,286.8,25.6,327z M182.8,215.9c31.6,2,62.6,3.9,90.1,5.7c4.6-7.7,7.5-12.5,10.4-17.3
		c5.3,3.2,11.8,5.4,15.5,9.9c8.3,10.2,14.3,12.8,29.5,9.1c-14.1-14.8-27.9-29.5-42-43.7c-3.1-3.1-7.7-6.8-11.7-6.8
		c-30.4-0.6-60.9-0.3-92.2-0.3c0,12.5,0,23.7,0,34.8C182.4,209.8,182.6,212.4,182.8,215.9z M164.6,172.2c-14.1,0-26.9,0-39.6,0
		c-29.2,0-40.4,9.6-45.4,39.2c28.1,1.4,56.2,2.8,85.1,4.2C164.6,201,164.6,187.3,164.6,172.2z"/>
	<path d="M112.8,319.3c0,18.9-14.9,34-33.8,34.2c-19.3,0.3-34.4-14.9-34.4-34.6c0-19.1,14.6-34,33.6-34.1
		C97.6,284.7,112.8,299.9,112.8,319.3z"/>
	<path d="M405.4,353.6c-18.9-0.3-34.4-16.7-33.8-35.7c0.6-18.8,16.1-33.4,35-33.1c18.6,0.3,33.9,15.8,34,34.4
		C440.6,337.9,424.3,353.9,405.4,353.6z"/>
</g>
</svg>
