<?xml version="1.0" encoding="utf-8"?>
<!-- Generator: Adobe Illustrator 27.9.0, SVG Export Plug-In . SVG Version: 6.00 Build 0)  -->
<svg version="1.1" id="Layer_1" xmlns="http://www.w3.org/2000/svg" xmlns:xlink="http://www.w3.org/1999/xlink" x="0px" y="0px"
	 viewBox="0 0 500 500" style="enable-background:new 0 0 500 500;" xml:space="preserve">
<g>
	<path d="M216.7,2.7c22.4,0,43.3,0,65.6,0c0,17.8,0,35.5,0,53c51.9,19.3,79.4,55.6,83.6,110.8c-22.2,0-43.6,0-65.4,0
		c-1.6-5.7-2.7-12-5-17.8c-9-22.6-34.1-35.3-57.3-29.4c-24.2,6.2-39.8,27.7-37.9,52.1c1.9,24.7,21.8,44.7,47.2,45.4
		c31.2,0.8,58.6,10.4,81.4,31.7c60.1,56.1,43.4,155.9-31.7,189.7c-4.6,2.1-9.2,4-14.5,6.3c0,17.4,0,34.7,0,52.9
		c-22.1,0-43.4,0-66.1,0c0-14.5-0.5-28.6,0.2-42.7c0.4-8.3-2.7-11.6-10.2-14.7c-44.8-18.4-74.6-62.8-71.7-106.4
		c21.4,0,42.8,0,64.3,0c0.8,3.8,1.4,7.4,2.4,10.9c6.8,25.3,30.1,41.2,54.9,37.6c25.2-3.7,43.7-25.8,42.7-51.2
		c-1-25.9-21.3-46.7-48-47.4c-36-1-66.3-13.7-89.7-41.2c-50.8-59.9-28.8-151.1,43.8-181.4c8.5-3.6,12.2-7.1,11.5-16.6
		C216,30.9,216.7,17.6,216.7,2.7z"/>
</g>
</svg>
