<?xml version="1.0" encoding="utf-8"?>
<!-- Generator: Adobe Illustrator 27.9.0, SVG Export Plug-In . SVG Version: 6.00 Build 0)  -->
<svg version="1.1" id="Layer_1" xmlns="http://www.w3.org/2000/svg" xmlns:xlink="http://www.w3.org/1999/xlink" x="0px" y="0px"
	 viewBox="0 0 500 500" style="enable-background:new 0 0 500 500;" xml:space="preserve">
<style type="text/css">
	.st0{fill:#FFFFFF;}
</style>
<g>
	<path class="st0" d="M373.5,359c-8.6,0-16.7,0-25.5,0c-0.1,2-0.2,3.7-0.3,5.5c0,6.7,0.3,13.4-0.2,20c-0.3,3.9-1.2,8-3.1,11.3
		c-3.9,6.9-15.9,9.4-26.9,6.4c-6.7-1.9-11.2-8.1-11.4-16.4c-0.2-8.6,0-17.3,0-26.3c-78.4,0-156.4,0-235.3,0c0,2.6,0,5.4,0,8.1
		c0,5.8,0.1,11.7-0.1,17.5c-0.3,11.6-6.6,17.7-18.2,17.7c-1.8,0-3.7,0-5.5,0c-11.5,0-17.8-6.3-18-17.9c-0.1-8.3,0-16.6,0-25.6
		c-8.6,0-17,0-25.8,0c0-30.3,0-60,0-90c123.4,0,246.6,0,370.2,0C373.5,299,373.5,328.7,373.5,359z"/>
	<path class="st0" d="M13.3,250.6c7.6-8.2,16-17.5,24.8-26.6c1.3-1.4,4.3-1.1,7.2-1.8c0-5.5,0-11.3,0-17.1c0-36.8,0-73.7-0.2-110.5
		c0-4.3,1-6.1,5.5-5.6c2.9,0.4,5.9,0.1,9.5,0.1c0,5,0,9.6,0,14.4c85.2,0,169.8,0,255,0c0-4.6,0-9.2,0-14.1c5.2,0,9.7,0,14.9,0
		c0,44.3,0,88.6,0,133.7c6.6-2.1,9.6,2.4,12.9,5.9c6.9,7.2,13.6,14.7,19.8,21.5C246.7,250.6,129,250.6,13.3,250.6z M311.2,223.3
		c-4.5-8.8-9.3-16.6-12.5-25.1c-3.6-9.5-9.1-12.6-19.3-12.1c-21.8,0.9-43.6,0.3-65.4,0.4c-1.6,0-4.4,1.2-4.6,2.2
		c-2.2,11.4-4,22.8-6,34.6C239.4,223.3,274.8,223.3,311.2,223.3z M64.6,223.1c36.2,0,71.7,0,107.6,0c-1.8-11-3.7-21.5-5.3-32
		c-0.5-3.7-2-4.9-5.8-4.8c-22.2,0.2-44.3,0.6-66.5-0.2c-8.8-0.3-13.5,2.2-16.8,10.4C74.3,205.6,69.3,214,64.6,223.1z"/>
	<path class="st0" d="M496.5,242c-33.2,0-66.2,0-99.5,0c0-21.3,0-42.3,0-63.9c9.7,0,19.1-0.1,28.6,0.1c3.2,0.1,6,0,7.2-3.6
		c0.1-0.3,0.3-0.7,0.6-0.8c8.4-4.2,6.4-11.9,6.5-19c0-2.3,0-4.6,0-6.6c0.9-0.4,1.1-0.7,1.4-0.7c12.4-1.3,12.4-1.3,12.3,10.9
		c0,1.8,0.1,3.7,0,5.5c-0.2,3,0.2,5.6,3.4,6.9c0.9,0.4,1.8,1.2,2.2,2c2.4,5.9,7.3,5.6,12.3,5.4c7.8-0.2,15.7-0.1,23.5,0
		c0.3,0,0.7,0.1,1.4,0.3C496.5,199.3,496.5,220.4,496.5,242z M415.7,219.9c21,0,41.5,0,61.9,0c0-6.8,0-13.2,0-19.5
		c-20.8,0-41.2,0-61.9,0C415.7,206.8,415.7,213.1,415.7,219.9z"/>
	<path class="st0" d="M496.7,254.2c0,21.4,0,42.3,0,63.6c-3.5,0-6.8,0-10.6,0c-0.2,3.7-0.4,7.1-0.5,10.9c-4,0-7.8,0-12.1,0
		c0-3.3,0-6.7,0-10.4c-18,0-35.4,0-53.2,0c-0.2,3.4-0.3,6.8-0.5,10.4c-4,0-7.8,0-11.9,0c0-3.4,0-6.7,0-10.5c-3.7,0-7.1,0-10.8,0
		c0-21.6,0-42.7,0-64C430.2,254.2,463.3,254.2,496.7,254.2z M415.7,295.7c21.1,0,41.5,0,62,0c0-6.7,0-13,0-19.5c-20.9,0-41.4,0-62,0
		C415.7,282.9,415.7,289.2,415.7,295.7z"/>
	<path class="st0" d="M479.4,137.8c-22.2,0-43.4,0-65.3,0c3.7-9.9,7.2-19.3,10.9-28.8c1.7-4.5,2.5-10.6,5.8-12.8
		c3.3-2.3,9.3-0.8,14.1-0.8c5.2-0.1,10.3-0.1,15.5,0.1c1.3,0.1,3.4,1.1,3.8,2.1C469.3,110.7,474.2,123.9,479.4,137.8z"/>
</g>
</svg>
