<?xml version="1.0" encoding="utf-8"?>
<!-- Generator: Adobe Illustrator 27.9.0, SVG Export Plug-In . SVG Version: 6.00 Build 0)  -->
<svg version="1.1" id="Layer_1" xmlns="http://www.w3.org/2000/svg" xmlns:xlink="http://www.w3.org/1999/xlink" x="0px" y="0px"
	 viewBox="0 0 512 512" style="enable-background:new 0 0 512 512;" xml:space="preserve">
<style type="text/css">
	.st0{fill:#FFFFFF;}
</style>
<path class="st0" d="M352,256c0,22.2-1.2,43.6-3.3,64H163.3c-2.2-20.4-3.3-41.8-3.3-64s1.2-43.6,3.3-64h185.4
	C350.9,212.4,352,233.8,352,256z M380.8,192h123.1c5.3,20.5,8.1,41.9,8.1,64s-2.8,43.5-8.1,64H380.8c2.1-20.6,3.2-42,3.2-64
	S382.9,212.6,380.8,192z M493.4,160H376.7c-10-63.9-29.8-117.4-55.3-151.6C399.7,29.1,463.4,85.9,493.4,160L493.4,160z M344.3,160
	H167.7c6.1-36.4,15.5-68.6,27-94.7c10.5-23.6,22.2-40.7,33.5-51.5C239.4,3.2,248.7,0,256,0c7.3,0,16.6,3.2,27.8,13.8
	c11.3,10.8,23,27.9,33.5,51.5C328.9,91.3,338.2,123.5,344.3,160z M135.3,160H18.6c30-74.1,93.6-130.9,172-151.6
	C165.1,42.6,145.3,96.1,135.3,160L135.3,160z M8.1,192h123.1c-2.1,20.6-3.2,42-3.2,64s1.1,43.4,3.2,64H8.1C2.8,299.5,0,278.1,0,256
	S2.8,212.5,8.1,192z M194.7,446.6c-11.6-26-20.9-58.2-27-94.6h176.6c-6.1,36.4-15.5,68.6-27,94.6c-10.5,23.6-22.2,40.7-33.5,51.5
	C272.6,508.8,263.3,512,256,512s-16.6-3.2-27.8-13.8c-11.3-10.8-23-27.9-33.5-51.5V446.6z M135.3,352c10,63.9,29.8,117.4,55.3,151.6
	c-78.4-20.7-142-77.5-172-151.6H135.3z M493.4,352c-30,74.1-93.6,130.9-171.9,151.6c25.5-34.2,45.2-87.7,55.3-151.6H493.4L493.4,352
	z"/>
</svg>
