<?xml version="1.0" encoding="utf-8"?>
<!-- Generator: Adobe Illustrator 27.9.0, SVG Export Plug-In . SVG Version: 6.00 Build 0)  -->
<svg version="1.1" id="Layer_1" xmlns="http://www.w3.org/2000/svg" xmlns:xlink="http://www.w3.org/1999/xlink" x="0px" y="0px"
	 viewBox="0 0 500 500" style="enable-background:new 0 0 500 500;" xml:space="preserve">
<g>
	<path d="M219.6,5c10.1,1.6,20.3,2.5,30.2,4.9c61.4,14.8,107.4,50,134.8,107c33.1,69,26.3,135.9-15.3,199.7
		c-3.1,4.8-6.9,9.2-10.7,14.2c1.1,1.2,2.3,2.5,3.4,3.7c37.1,38.6,74.2,77.2,111.3,115.8c10,10.4,11.9,22.6,5.3,33.6
		c-8,13.3-26.4,16.3-38.3,6.3c-1.8-1.5-3.5-3.3-5.2-5C398,446.6,360.9,408,323.8,369.4c-1.1-1.1-1.9-2.6-2.3-3.1
		c-12.7,6.7-24,13.7-36.1,18.8c-54.2,22.9-108.6,22.9-162-2.2C67.6,356.5,31.1,313,15.2,253.4C1.1,200.7,8.2,150,36.2,103
		c29.6-49.8,73.3-80.8,129.7-93.6c9.1-2.1,18.5-2.9,27.8-4.3C202.4,5,211,5,219.6,5z M206.6,56.8C126,56.9,60.3,122.6,60.3,203.3
		s65.4,146.1,146.3,146.5c80.5,0.3,146.9-66.1,146.5-146.7C352.8,122.1,287.2,56.7,206.6,56.8z"/>
</g>
</svg>
