<?xml version="1.0" encoding="utf-8"?>
<!-- Generator: Adobe Illustrator 27.9.0, SVG Export Plug-In . SVG Version: 6.00 Build 0)  -->
<svg version="1.1" id="Layer_1" xmlns="http://www.w3.org/2000/svg" xmlns:xlink="http://www.w3.org/1999/xlink" x="0px" y="0px"
	 viewBox="0 0 483 483" style="enable-background:new 0 0 483 483;" xml:space="preserve">
<g>
	<path d="M10,116c1.9,0.1,3.9,0.3,5.8,0.3c87.4,0,174.8,0,262.2,0c12.9,0,22,6,25.1,16.9c0.8,2.8,1.1,5.9,1.1,8.9
		c0.1,58.2,0,116.5,0,174.7c0,1.3-0.1,2.6-0.2,3.9c-3.3,1.5-4.7,0.5-5.5-2.8c-5.9-24.7-26.2-41-50.6-40.9
		c-24.1,0.1-44.7,16.9-50.1,41c-0.6,2.7-1.6,3.4-4.1,3.4c-23.9-0.1-47.9-0.1-71.8,0c-2.7,0-3.6-1-4.1-3.5
		c-5.6-24.5-26.2-41-50.5-40.9c-24.2,0.1-44.8,16.8-50.1,40.9c-1.1,5.1-4.4,3.1-7.2,3C10,252.6,10,184.3,10,116z M151,198.7
		c-31.1,0-62.3,0-93.4,0c-1.5,0-3-0.1-4.5,0.2c-3.4,0.8-5.5,3-5.6,6.7c-0.1,3.6,1.7,6,5.2,6.9c1.6,0.4,3.3,0.4,4.9,0.4
		c62.1,0,124.3,0,186.4,0c1.6,0,3.3,0,4.9-0.3c3.7-0.9,5.6-3.4,5.4-7.2c-0.2-3.6-2.4-5.7-5.9-6.4c-1.4-0.3-3-0.1-4.5-0.1
		C213,198.7,182,198.7,151,198.7z M181.6,248c20.8,0,41.6,0,62.4,0c1.5,0,3,0.1,4.5-0.2c3.6-0.8,5.9-3,5.9-6.9s-2.2-6.1-5.8-6.9
		c-1.4-0.3-3-0.2-4.5-0.2c-41.5,0-82.9,0-124.4,0c-1.5,0-3-0.1-4.5,0.2c-4.8,0.9-7.3,5.7-5.3,9.9c1.7,3.4,4.8,4.1,8.3,4.1
		C139.4,248,160.5,248,181.6,248z M194.4,163.6c-17.2,0-34.4,0-51.6,0c-5.9,0-8.9,2.5-8.9,7s3,7,8.6,7c34.4,0.1,68.9,0.1,103.3,0
		c5.7,0,8.9-2.8,8.7-7.4c-0.2-4.3-3.2-6.7-8.8-6.7C228.5,163.6,211.4,163.6,194.4,163.6z"/>
	<path d="M469.7,321c-5.8,0-11.4,0-17.3,0c-1.8-9.4-5.1-18-11.3-25.1c-13.5-15.6-30.5-22-50.7-17.6c-20.8,4.6-34,17.9-39.3,38.6
		c-0.9,3.5-2.1,4.5-5.6,4.4c-8.9-0.3-17.9-0.1-27-0.1c0-32.3,0-64,0-96.3c1.4-0.1,2.8-0.2,4.2-0.2c39.5,0,79-0.1,118.5,0.1
		c2.2,0,4.9,1.2,6.6,2.7c4.7,4.1,9.1,8.6,13.6,13c5.4,5.4,8.4,12,8.5,19.7c0.1,19.3,0.1,38.6,0,57.9C470,319.1,469.8,320,469.7,321z
		"/>
	<path d="M318.4,210.5c0-17.5,0-34.4,0-51.8c1.7-0.1,3.2-0.2,4.8-0.2c19.2,0,38.3,0.1,57.5,0c11.9-0.1,21,4.6,27.5,14.7
		c7.3,11.3,14.9,22.4,22.4,33.6c0.7,1.1,1.3,2.2,2.2,3.8C394.4,210.5,356.6,210.5,318.4,210.5z"/>
	<path d="M67.4,290.8c20.6-0.1,37.5,16.6,37.7,37.1c0.2,20.7-16.7,37.8-37.4,37.9S29.9,348.9,30,328.2
		C30,307.7,46.8,290.9,67.4,290.8z"/>
	<path d="M247.6,290.8c20.3-0.5,37.7,16,38.2,36.2c0.5,20.9-15.6,38.1-36.1,38.7c-21.2,0.6-38.4-15.8-38.8-36.9
		C210.5,308.2,226.8,291.4,247.6,290.8z"/>
	<path d="M363.7,328.1c0.1-20.8,16.8-37.5,37.5-37.4c20.9,0.1,37.6,16.9,37.4,37.9c-0.2,20.6-17,37.3-37.7,37.1
		C380.3,365.7,363.7,348.8,363.7,328.1z"/>
</g>
</svg>
