<?xml version="1.0" encoding="utf-8"?>
<!-- Generator: Adobe Illustrator 27.9.0, SVG Export Plug-In . SVG Version: 6.00 Build 0)  -->
<svg version="1.1" id="Layer_1" xmlns="http://www.w3.org/2000/svg" xmlns:xlink="http://www.w3.org/1999/xlink" x="0px" y="0px"
	 viewBox="0 0 500 500" style="enable-background:new 0 0 500 500;" xml:space="preserve">
<style type="text/css">
	.st0{fill:#FFFFFF;}
</style>
<g>
	<path class="st0" d="M120.5,458.7c-9,7,1,27.7-21.2,23.7c0-7.7,0-15.4,0-24.1c-23.1,2.4-30.8-11.2-35.4-29.9
		c-7.7-31-16.8-61.6-25.3-92.3c-0.8-2.9-1.4-5.9-2.2-9.4c141.1,0,281.5,0,423,0c-4.9,17.8-9.5,34.9-14.3,52
		c-4.7,16.9-9.4,33.7-14.1,50.6c-6.5,23.9-9.7,26.8-34.9,30c0,7.5,0,15.3,0,23.1c-7.1,0.6-13.6,3.2-14.9-6.6
		c-0.8-5.7-2.9-11.2-4.4-17C290.6,458.7,204.9,458.7,120.5,458.7z"/>
	<path class="st0" d="M429.3,37.2c0,47.6,0,93.2,0,139.7c-35.6,0-70.7,0-106.6,0c0-4.7,0-9.6,0-15.4c21.4,0,42.5,0,64.5,0
		c0-41.5,0-82.1,0-123.4c-4.8,0-9.5,0-15.3,0c0,34.9,0,70.1,0,105.9c-22.5,0-43.9,0-66.2,0c0-35.2,0-70.1,0-106.5
		c-11.9,1.3-23.1-3.7-33.5,5.5c-6.2,5.5-16,2.9-21-4c-5.1-7-4.9-14.1,0.7-20.8c5.4-6.4,14-6.9,21.5-2.8c5.1,2.7,11,5.2,16.6,5.2
		c51.5,0.4,103,0.4,154.5,0c5.6,0,11.5-2.5,16.6-5.2c7.5-4,16.1-3.5,21.5,2.9c5.6,6.6,6,13.9,0.6,20.7c-5.3,6.7-13.6,9.8-19.9,4.3
		C452.8,34.3,441.5,38.9,429.3,37.2z"/>
	<path class="st0" d="M247.6,276.8c71.4,0,142.9-0.1,214.3,0.2c5.3,0,14.3,1.9,15.1,4.7c2,7.5,1.4,16.2-0.3,24
		c-0.5,2.2-8.1,3.9-12.5,4c-52.2,0.3-104.4,0.2-156.6,0.2c-91.7,0-183.4,0.1-275.1-0.3c-5.1,0-13.8-2.7-14.4-5.5
		c-1.6-7.6-0.5-16.2,1.3-23.9c0.4-1.9,7.7-3.2,11.9-3.2C103.3,276.7,175.4,276.8,247.6,276.8C247.6,276.8,247.6,276.8,247.6,276.8z"
		/>
	<path class="st0" d="M58.5,244.2c5.3-0.3,10-0.5,15.8-0.8c0-21.7,0-43.2,0-65.1c5.8-0.3,10.5-0.6,14.7-0.8
		c1.8-7.8,1.3-19.3,5.7-21.7c7.6-4.1,18.3-2.7,28.5-3.6c0,6.4,0,11.3,0,15.8c-4.3,4.8-15.5-3.8-15.9,9.3c5.5,0.3,10.2,0.6,16.2,0.9
		c0,21.4,0,42.8,0,64.8c6.1,0.5,11.1,1,16.4,1.4c0,5.1,0,9.8,0,15.2c-27,0-53.9,0-81.4,0C58.5,254.7,58.5,250.1,58.5,244.2z"/>
	<path class="st0" d="M181.7,185.6c-5.8,0-10.5,0-17.1,0c0.9-10.7,0.3-21.5,2.8-31.5c4.2-16.7,20.7-27,37.7-25.7
		c17.3,1.3,33.2,14.7,33.7,32.1c1.1,35.6,0.3,71.3,0.3,107.5c-5.3,0-10,0-16.2,0c0-3.6,0-7.2,0-10.9c0-29.2,0.1-58.4,0-87.6
		c-0.1-15.3-7.7-24.4-20.3-24.6c-12.8-0.2-20.8,9.3-20.9,25.1C181.7,174.7,181.7,179.5,181.7,185.6z"/>
	<path class="st0" d="M280.6,244.9c0,7.8,0,15,0,22.9c-5.4,0-10.3,0-16,0c0-7.6,0-15,0-22.8c-13.2-1.3-7.6-10.1-8.4-17.3
		c10.9,0,21,0,32,0C287.8,234.3,293.9,242.6,280.6,244.9z"/>
</g>
</svg>
