<?xml version="1.0" encoding="utf-8"?>
<!-- Generator: Adobe Illustrator 27.9.0, SVG Export Plug-In . SVG Version: 6.00 Build 0)  -->
<svg version="1.1" id="Layer_1" xmlns="http://www.w3.org/2000/svg" xmlns:xlink="http://www.w3.org/1999/xlink" x="0px" y="0px"
	 viewBox="0 0 800 800" style="enable-background:new 0 0 800 800;" xml:space="preserve">
<style type="text/css">
	.st0{fill:#FFFFFF;}
</style>
<path class="st0" d="M400,66.7C216,66.7,66.7,216,66.7,400c0,166.3,121.9,304.2,281.2,329.3V496.4h-84.7V400H348v-73.4
	c0-83.6,49.8-129.7,125.9-129.7c36.5,0,74.7,6.5,74.7,6.5v82h-42.1c-41.3,0-54.3,25.7-54.3,52.1V400h92.4l-14.8,96.4h-77.6v232.9
	c159.4-25,281.2-162.9,281.2-329.2C733.3,216,584.1,66.7,400,66.7L400,66.7z"/>
</svg>
