<?xml version="1.0" encoding="utf-8"?>
<!-- Generator: Adobe Illustrator 27.9.0, SVG Export Plug-In . SVG Version: 6.00 Build 0)  -->
<svg version="1.1" id="Layer_1" xmlns="http://www.w3.org/2000/svg" xmlns:xlink="http://www.w3.org/1999/xlink" x="0px" y="0px"
	 viewBox="0 0 512 512" style="enable-background:new 0 0 512 512;" xml:space="preserve">
<g>
	<path d="M129.7,472.9c-0.8-2.4-1.3-4-1.8-5.5c-14-43.7-27.8-87.3-42-130.9c-1.5-4.6-0.8-6.4,3.7-8.5c30.7-14.2,61.2-28.7,91.8-43.2
		c33.1-15.6,66.3-31.3,99.4-46.9c30.4-14.3,60.8-28.7,91-44.2c-5.5,0.9-11.1,1.8-16.6,2.8c-46.7,8.3-93.5,16.6-140.2,24.9
		c-50.8,9-101.7,18.1-152.5,27.2c-2.8,0.5-4.5,0.4-5.5-2.9C42.8,200.2,28.4,154.8,14,109.3c-0.2-0.6-0.2-1.2-0.4-2.4
		c161.3,15.7,322.2,31.3,484.7,47.1C375,260.7,252.6,366.5,129.7,472.9z"/>
</g>
</svg>
