<?xml version="1.0" encoding="utf-8"?>
<!-- Generator: Adobe Illustrator 27.9.0, SVG Export Plug-In . SVG Version: 6.00 Build 0)  -->
<svg version="1.1" id="Capa_1" xmlns="http://www.w3.org/2000/svg" xmlns:xlink="http://www.w3.org/1999/xlink" x="0px" y="0px"
	 viewBox="0 0 800 800" style="enable-background:new 0 0 800 800;" xml:space="preserve">
<g>
	<path d="M602.8,288.4c0-121.9-134.8-220.8-301.3-220.8C134.8,67.5,0,166.5,0,288.4c0,75,51.4,141,129.5,181L54.6,611.6l162.3-112.2
		c27,5.8,55.1,9.9,84.6,9.9C468,509.3,602.8,410.4,602.8,288.4z M206.8,312.3h-63.6v-63.7h63.6V312.3z M399.9,248.6h63.6v63.7h-63.6
		V248.6z M271.6,248.6h63.6v63.7h-63.6V248.6z"/>
	<path d="M800,427.3c0-80.1-61.7-149.6-152.2-184.5c4.5,16.4,6.9,33.5,6.9,51.1c0,144.5-159.6,261.7-356.9,261.7
		c-2.4,0-4.7-0.5-7.1-0.5c52,49.1,133.2,80.8,224.6,80.8c27.9,0,54.3-3.9,79.8-9.3l153.4,105.9l-70.8-134.3
		C751.5,560.4,800,498.1,800,427.3z"/>
</g>
</svg>
