<?xml version="1.0" encoding="utf-8"?>
<!-- Generator: Adobe Illustrator 27.9.0, SVG Export Plug-In . SVG Version: 6.00 Build 0)  -->
<svg version="1.1" id="Layer_1" xmlns="http://www.w3.org/2000/svg" xmlns:xlink="http://www.w3.org/1999/xlink" x="0px" y="0px"
	 viewBox="0 0 500 500" style="enable-background:new 0 0 500 500;" xml:space="preserve">
<style type="text/css">
	.st0{fill:#FFFFFF;}
</style>
<g>
	<path class="st0" d="M250.5,495c-0.5,0-1,0-1.5,0c-13.2-15.8-26-32.1-39.7-47.5c-26.4-29.6-50.2-61-70.9-94.8
		c-26.5-43.3-48.9-88.3-58.5-138.7C62.2,121.7,117.6,33.3,207.6,10.3c8.6-2.2,17.4-3.5,26.1-5.3c10.7,0,21.4,0,32.2,0
		c1.7,0.5,3.4,1.1,5.1,1.3c69.7,10.8,117.2,49.3,142,115c16.2,42.9,11.9,86.3-1.1,129.1c-21.5,70.5-60.6,130.9-109,185.7
		C285.4,455.8,268,475.4,250.5,495z M249.9,257.7c43,0,78-35.2,78.3-78.5c0.2-43.5-35.1-79.2-78.5-79.1c-43,0-78.1,35.2-78.2,78.5
		C171.3,222.2,206.5,257.7,249.9,257.7z"/>
</g>
</svg>
